<?xml version="1.0" standalone="no"?>
<!DOCTYPE svg PUBLIC "-//W3C//DTD SVG 1.1//EN" "http://www.w3.org/Graphics/SVG/1.1/DTD/svg11.dtd" >
<svg xmlns="http://www.w3.org/2000/svg">
<metadata>Generated by IcoMoon</metadata>
<defs>
<font id="yi-icons" horiz-adv-x="1024">
<font-face units-per-em="1024" ascent="960" descent="-64" />
<missing-glyph horiz-adv-x="1024" />
<glyph unicode="&#x20;" horiz-adv-x="512" d="" />
<glyph unicode="&#xe600;" glyph-name="headphones" d="M947.2 203.366c-14.131 0-25.6 11.469-25.6 25.6v180.634c0 260.301-149.299 409.6-409.6 409.6s-409.6-149.299-409.6-409.6v-180.634c0-14.131-11.469-25.6-25.6-25.6s-25.6 11.469-25.6 25.6v180.634c0 77.517 12.134 147.149 36.045 207.104 22.784 57.139 56.422 105.882 99.994 144.794 79.718 71.27 192 108.902 324.813 108.902s245.094-37.683 324.813-108.902c43.52-38.912 77.158-87.654 99.994-144.794 23.91-59.904 36.045-129.587 36.045-207.104v-180.634c0-14.131-11.469-25.6-25.6-25.6zM332.8 460.8c-33.638 0-62.259-21.709-72.602-51.866-56.474-3.482-96.973-21.197-123.341-53.862-23.501-29.184-34.458-68.813-34.458-124.672s10.957-95.488 34.458-124.672c26.368-32.717 66.816-50.381 123.341-53.862 10.394-30.157 39.014-51.866 72.602-51.866 42.342 0 76.8 34.458 76.8 76.8v307.2c0 42.342-34.458 76.8-76.8 76.8zM153.6 230.4c0 72.243 17.92 119.347 102.4 126.925v-253.85c-84.48 7.578-102.4 54.682-102.4 126.925zM358.4 76.8c0-14.131-11.469-25.6-25.6-25.6s-25.6 11.469-25.6 25.6v307.2c0 14.131 11.469 25.6 25.6 25.6s25.6-11.469 25.6-25.6v-307.2zM887.142 355.072c-26.368 32.717-66.816 50.381-123.29 53.862-10.394 30.157-39.014 51.866-72.602 51.866-42.342 0-76.8-34.458-76.8-76.8v-307.2c0-42.342 34.458-76.8 76.8-76.8 33.638 0 62.259 21.709 72.602 51.866 56.474 3.482 96.973 21.197 123.29 53.862 23.501 29.184 34.458 68.813 34.458 124.672s-10.957 95.488-34.458 124.672zM691.2 51.2c-14.131 0-25.6 11.469-25.6 25.6v307.2c0 14.131 11.469 25.6 25.6 25.6s25.6-11.469 25.6-25.6v-307.2c0-14.131-11.469-25.6-25.6-25.6zM768 103.475v253.85c84.48-7.578 102.4-54.682 102.4-126.925s-17.92-119.347-102.4-126.925z" />
<glyph unicode="&#xe601;" glyph-name="map-marker" d="M512-51.2c-7.834 0-15.258 3.584-20.122 9.779-2.918 3.738-72.602 92.877-143.206 224.512-41.574 77.466-74.752 153.549-98.56 226.099-30.054 91.494-45.261 177.766-45.261 256.41 0 169.37 137.83 307.2 307.2 307.2s307.2-137.83 307.2-307.2c0-78.643-15.258-164.864-45.261-256.41-23.808-72.55-56.986-148.634-98.56-226.099-70.656-131.635-140.288-220.774-143.206-224.512-4.864-6.195-12.288-9.779-20.122-9.779zM512 921.6c-141.158 0-256-114.842-256-256 0-166.605 74.906-341.197 137.779-458.291 46.182-86.067 92.621-154.317 118.221-189.952 25.702 35.789 72.448 104.448 118.682 190.771 62.618 116.89 137.318 291.174 137.318 457.472 0 141.158-114.842 256-256 256zM512 512c-84.685 0-153.6 68.915-153.6 153.6s68.915 153.6 153.6 153.6 153.6-68.915 153.6-153.6-68.915-153.6-153.6-153.6zM512 768c-56.474 0-102.4-45.926-102.4-102.4s45.926-102.4 102.4-102.4c56.474 0 102.4 45.926 102.4 102.4s-45.926 102.4-102.4 102.4z" />
<glyph unicode="&#xe602;" glyph-name="icons2" d="M179.2 0h-102.4c-42.342 0-76.8 34.458-76.8 76.8v102.4c0 42.342 34.458 76.8 76.8 76.8h102.4c42.342 0 76.8-34.458 76.8-76.8v-102.4c0-42.342-34.458-76.8-76.8-76.8zM76.8 204.8c-14.131 0-25.6-11.469-25.6-25.6v-102.4c0-14.131 11.469-25.6 25.6-25.6h102.4c14.131 0 25.6 11.469 25.6 25.6v102.4c0 14.131-11.469 25.6-25.6 25.6h-102.4zM537.6 0h-102.4c-42.342 0-76.8 34.458-76.8 76.8v102.4c0 42.342 34.458 76.8 76.8 76.8h102.4c42.342 0 76.8-34.458 76.8-76.8v-102.4c0-42.342-34.458-76.8-76.8-76.8zM435.2 204.8c-14.131 0-25.6-11.469-25.6-25.6v-102.4c0-14.131 11.469-25.6 25.6-25.6h102.4c14.131 0 25.6 11.469 25.6 25.6v102.4c0 14.131-11.469 25.6-25.6 25.6h-102.4zM896 0h-102.4c-42.342 0-76.8 34.458-76.8 76.8v102.4c0 42.342 34.458 76.8 76.8 76.8h102.4c42.342 0 76.8-34.458 76.8-76.8v-102.4c0-42.342-34.458-76.8-76.8-76.8zM793.6 204.8c-14.131 0-25.6-11.469-25.6-25.6v-102.4c0-14.131 11.469-25.6 25.6-25.6h102.4c14.131 0 25.6 11.469 25.6 25.6v102.4c0 14.131-11.469 25.6-25.6 25.6h-102.4zM179.2 358.4h-102.4c-42.342 0-76.8 34.458-76.8 76.8v102.4c0 42.342 34.458 76.8 76.8 76.8h102.4c42.342 0 76.8-34.458 76.8-76.8v-102.4c0-42.342-34.458-76.8-76.8-76.8zM76.8 563.2c-14.131 0-25.6-11.469-25.6-25.6v-102.4c0-14.131 11.469-25.6 25.6-25.6h102.4c14.131 0 25.6 11.469 25.6 25.6v102.4c0 14.131-11.469 25.6-25.6 25.6h-102.4zM537.6 358.4h-102.4c-42.342 0-76.8 34.458-76.8 76.8v102.4c0 42.342 34.458 76.8 76.8 76.8h102.4c42.342 0 76.8-34.458 76.8-76.8v-102.4c0-42.342-34.458-76.8-76.8-76.8zM435.2 563.2c-14.131 0-25.6-11.469-25.6-25.6v-102.4c0-14.131 11.469-25.6 25.6-25.6h102.4c14.131 0 25.6 11.469 25.6 25.6v102.4c0 14.131-11.469 25.6-25.6 25.6h-102.4zM896 358.4h-102.4c-42.342 0-76.8 34.458-76.8 76.8v102.4c0 42.342 34.458 76.8 76.8 76.8h102.4c42.342 0 76.8-34.458 76.8-76.8v-102.4c0-42.342-34.458-76.8-76.8-76.8zM793.6 563.2c-14.131 0-25.6-11.469-25.6-25.6v-102.4c0-14.131 11.469-25.6 25.6-25.6h102.4c14.131 0 25.6 11.469 25.6 25.6v102.4c0 14.131-11.469 25.6-25.6 25.6h-102.4zM179.2 716.8h-102.4c-42.342 0-76.8 34.458-76.8 76.8v102.4c0 42.342 34.458 76.8 76.8 76.8h102.4c42.342 0 76.8-34.458 76.8-76.8v-102.4c0-42.342-34.458-76.8-76.8-76.8zM76.8 921.6c-14.131 0-25.6-11.469-25.6-25.6v-102.4c0-14.131 11.469-25.6 25.6-25.6h102.4c14.131 0 25.6 11.469 25.6 25.6v102.4c0 14.131-11.469 25.6-25.6 25.6h-102.4zM537.6 716.8h-102.4c-42.342 0-76.8 34.458-76.8 76.8v102.4c0 42.342 34.458 76.8 76.8 76.8h102.4c42.342 0 76.8-34.458 76.8-76.8v-102.4c0-42.342-34.458-76.8-76.8-76.8zM435.2 921.6c-14.131 0-25.6-11.469-25.6-25.6v-102.4c0-14.131 11.469-25.6 25.6-25.6h102.4c14.131 0 25.6 11.469 25.6 25.6v102.4c0 14.131-11.469 25.6-25.6 25.6h-102.4zM896 716.8h-102.4c-42.342 0-76.8 34.458-76.8 76.8v102.4c0 42.342 34.458 76.8 76.8 76.8h102.4c42.342 0 76.8-34.458 76.8-76.8v-102.4c0-42.342-34.458-76.8-76.8-76.8zM793.6 921.6c-14.131 0-25.6-11.469-25.6-25.6v-102.4c0-14.131 11.469-25.6 25.6-25.6h102.4c14.131 0 25.6 11.469 25.6 25.6v102.4c0 14.131-11.469 25.6-25.6 25.6h-102.4z" />
<glyph unicode="&#xe603;" glyph-name="audio" d="M699.034 210.893c-7.424 0-14.797 3.226-19.866 9.421-8.909 10.957-7.27 27.085 3.686 35.994 54.118 43.981 85.146 109.21 85.146 178.842s-31.027 134.81-85.094 178.842c-10.957 8.909-12.646 25.037-3.686 35.994s25.037 12.646 35.994 3.686c66.099-53.76 103.987-133.427 103.987-218.573s-37.888-164.762-103.987-218.573c-4.762-3.84-10.445-5.734-16.128-5.734zM602.214 330.138c-7.424 0-14.797 3.226-19.866 9.421-8.909 10.957-7.27 27.085 3.686 35.994 18.022 14.694 28.365 36.403 28.365 59.597s-10.342 44.954-28.365 59.597c-10.957 8.909-12.646 25.037-3.686 35.994s25.037 12.646 35.994 3.686c30.054-24.422 47.258-60.621 47.258-99.328s-17.254-74.906-47.258-99.328c-4.762-3.84-10.445-5.734-16.128-5.734zM417.28 808.602c-12.646 0-25.293-5.325-37.683-15.821l-209.818-178.33h-92.979c-42.342 0-76.8-34.458-76.8-76.8v-204.8c0-42.342 34.458-76.8 76.8-76.8h92.979l209.818-178.33c12.339-10.496 25.037-15.821 37.683-15.821 0 0 0 0 0 0 13.926 0 26.419 6.758 34.304 18.534 6.093 9.165 9.216 20.89 9.216 34.816v640c0 36.864-21.862 53.402-43.52 53.402zM51.2 332.8v204.8c0 14.131 11.469 25.6 25.6 25.6h76.8v-256h-76.8c-14.131 0-25.6 11.469-25.6 25.6zM409.6 119.347l-204.8 174.080v283.546l204.8 174.080v-631.706z" />
<glyph unicode="&#xe604;" glyph-name="cross" d="M548.198 435.2l289.075 289.075c9.984 9.984 9.984 26.214 0 36.198s-26.214 9.984-36.198 0l-289.075-289.075-289.075 289.075c-9.984 9.984-26.214 9.984-36.198 0s-9.984-26.214 0-36.198l289.075-289.075-289.075-289.075c-9.984-9.984-9.984-26.214 0-36.198 5.018-5.018 11.571-7.475 18.125-7.475s13.107 2.509 18.125 7.475l289.075 289.075 289.075-289.075c5.018-5.018 11.571-7.475 18.125-7.475s13.107 2.509 18.125 7.475c9.984 9.984 9.984 26.214 0 36.198l-289.075 289.075z" />
<glyph unicode="&#xe605;" glyph-name="check" d="M281.6 76.8c-6.554 0-13.107 2.509-18.125 7.475l-256 256c-9.984 9.984-9.984 26.214 0 36.198s26.214 9.984 36.198 0l237.875-237.875 698.675 698.675c9.984 9.984 26.214 9.984 36.198 0s9.984-26.214 0-36.198l-716.8-716.8c-5.018-5.018-11.571-7.475-18.125-7.475z" />
<glyph unicode="&#xe606;" glyph-name="cross-large" d="M548.198 435.2l442.675 442.675c9.984 9.984 9.984 26.214 0 36.198s-26.214 9.984-36.198 0l-442.675-442.675-442.675 442.675c-9.984 9.984-26.214 9.984-36.198 0s-9.984-26.214 0-36.198l442.675-442.675-442.675-442.675c-9.984-9.984-9.984-26.214 0-36.198 5.018-5.018 11.571-7.475 18.125-7.475s13.107 2.509 18.125 7.475l442.675 442.675 442.675-442.675c5.018-5.018 11.571-7.475 18.125-7.475s13.107 2.509 18.125 7.475c9.984 9.984 9.984 26.214 0 36.198l-442.675 442.675z" />
<glyph unicode="&#xe607;" glyph-name="plus" d="M947.2 460.8h-435.2v435.2c0 14.131-11.469 25.6-25.6 25.6s-25.6-11.469-25.6-25.6v-435.2h-435.2c-14.131 0-25.6-11.469-25.6-25.6s11.469-25.6 25.6-25.6h435.2v-435.2c0-14.131 11.469-25.6 25.6-25.6s25.6 11.469 25.6 25.6v435.2h435.2c14.131 0 25.6 11.469 25.6 25.6s-11.469 25.6-25.6 25.6z" />
<glyph unicode="&#xe60a;" glyph-name="chevron-left" d="M716.8-51.2c6.554 0 13.107 2.509 18.125 7.475 9.984 9.984 9.984 26.214 0 36.198l-442.675 442.675 442.675 442.675c9.984 9.984 9.984 26.214 0 36.198s-26.214 9.984-36.198 0l-460.8-460.8c-9.984-9.984-9.984-26.214 0-36.198l460.8-460.8c5.018-5.018 11.571-7.475 18.125-7.475z" />
<glyph unicode="&#xe60b;" glyph-name="chevron-right" d="M256-51.2c-6.554 0-13.107 2.509-18.125 7.475-9.984 9.984-9.984 26.214 0 36.198l442.675 442.675-442.675 442.675c-9.984 9.984-9.984 26.214 0 36.198s26.214 9.984 36.198 0l460.8-460.8c9.984-9.984 9.984-26.214 0-36.198l-460.8-460.8c-5.018-5.018-11.571-7.475-18.125-7.475z" />
<glyph unicode="&#xe60c;" glyph-name="bubble" d="M25.6 0c-11.52 0-21.606 7.68-24.678 18.79s1.638 22.886 11.52 28.774c86.579 51.917 122.47 127.437 135.219 162.765-94.106 72.038-147.661 171.725-147.661 276.070 0 52.685 13.21 103.731 39.322 151.757 24.883 45.773 60.416 86.784 105.523 121.907 91.494 71.168 212.787 110.387 341.555 110.387s250.061-39.219 341.555-110.387c45.107-35.072 80.64-76.083 105.523-121.907 26.112-47.974 39.322-99.021 39.322-151.757s-13.21-103.731-39.322-151.757c-24.883-45.773-60.416-86.784-105.523-121.907-91.494-71.168-212.787-110.387-341.555-110.387-52.89 0-104.806 6.605-154.419 19.712-21.965-14.643-63.027-40.602-112.077-65.024-76.186-37.888-141.517-57.088-194.253-57.088zM486.4 819.2c-239.974 0-435.2-149.299-435.2-332.8 0-92.928 51.456-182.374 141.107-245.35 8.806-6.195 12.8-17.203 10.035-27.597-5.99-22.323-26.368-83.61-80.896-142.746 66.662 23.347 138.445 63.846 191.437 100.301 6.298 4.352 14.182 5.632 21.555 3.533 48.538-13.875 99.686-20.941 151.962-20.941 239.974 0 435.2 149.299 435.2 332.8s-195.226 332.8-435.2 332.8z" />
<glyph unicode="&#xe60d;" glyph-name="search" d="M966.093-8.294l-304.282 331.981c68.557 71.731 106.24 165.53 106.24 265.114 0 102.554-39.936 199.014-112.486 271.514s-168.96 112.486-271.514 112.486-199.014-39.936-271.514-112.486-112.486-168.96-112.486-271.514 39.936-199.014 112.486-271.514 168.96-112.486 271.514-112.486c88.371 0 172.134 29.645 240.026 84.224l304.282-331.93c5.069-5.53 11.93-8.294 18.893-8.294 6.195 0 12.39 2.202 17.306 6.707 10.445 9.574 11.11 25.754 1.587 36.147zM51.2 588.8c0 183.501 149.299 332.8 332.8 332.8s332.8-149.299 332.8-332.8-149.299-332.8-332.8-332.8-332.8 149.299-332.8 332.8z" />
<glyph unicode="&#xe60e;" glyph-name="menu" d="M896 665.6h-768c-14.131 0-25.6 11.469-25.6 25.6s11.469 25.6 25.6 25.6h768c14.131 0 25.6-11.469 25.6-25.6s-11.469-25.6-25.6-25.6zM896 409.6h-768c-14.131 0-25.6 11.469-25.6 25.6s11.469 25.6 25.6 25.6h768c14.131 0 25.6-11.469 25.6-25.6s-11.469-25.6-25.6-25.6zM896 153.6h-768c-14.131 0-25.6 11.469-25.6 25.6s11.469 25.6 25.6 25.6h768c14.131 0 25.6-11.469 25.6-25.6s-11.469-25.6-25.6-25.6z" />
<glyph unicode="&#xf003;" glyph-name="email" d="M950.857 113.371v438.857q-18.286-20.571-39.429-37.714-153.143-117.714-243.429-193.143-29.143-24.571-47.429-38.286t-49.429-27.714-58.571-14h-1.143q-27.429 0-58.571 14t-49.429 27.714-47.429 38.286q-90.286 75.429-243.429 193.143-21.143 17.143-39.429 37.714v-438.857q0-7.429 5.429-12.857t12.857-5.429h841.143q7.429 0 12.857 5.429t5.429 12.857zM950.857 713.943v14t-0.286 7.429-1.714 7.143-3.143 5.143-5.143 4.286-8 1.429h-841.143q-7.429 0-12.857-5.429t-5.429-12.857q0-96 84-162.286 110.286-86.857 229.143-181.143 3.429-2.857 20-16.857t26.286-21.429 25.429-18 28.857-15.714 24.571-5.143h1.143q11.429 0 24.571 5.143t28.857 15.714 25.429 18 26.286 21.429 20 16.857q118.857 94.286 229.143 181.143 30.857 24.571 57.429 66t26.571 75.143zM1024 735.086v-621.714q0-37.714-26.857-64.571t-64.571-26.857h-841.143q-37.714 0-64.571 26.857t-26.857 64.571v621.714q0 37.714 26.857 64.571t64.571 26.857h841.143q37.714 0 64.571-26.857t26.857-64.571z" />
<glyph unicode="&#xf004;" glyph-name="heart" d="M512 21.943q-14.857 0-25.143 10.286l-356.571 344q-5.714 4.571-15.714 14.857t-31.714 37.429-38.857 55.714-30.571 69.143-13.429 78.857q0 125.714 72.571 196.571t200.571 70.857q35.429 0 72.286-12.286t68.571-33.143 54.571-39.143 43.429-38.857q20.571 20.571 43.429 38.857t54.571 39.143 68.571 33.143 72.286 12.286q128 0 200.571-70.857t72.571-196.571q0-126.286-130.857-257.143l-356-342.857q-10.286-10.286-25.143-10.286z" />
<glyph unicode="&#xf02f;" glyph-name="print" horiz-adv-x="951" d="M219.429 95.086h512v146.286h-512v-146.286zM219.429 460.8h512v219.429h-91.429q-22.857 0-38.857 16t-16 38.857v91.429h-365.714v-365.714zM877.714 424.229q0 14.857-10.857 25.714t-25.714 10.857-25.714-10.857-10.857-25.714 10.857-25.714 25.714-10.857 25.714 10.857 10.857 25.714zM950.857 424.229v-237.714q0-7.429-5.429-12.857t-12.857-5.429h-128v-91.429q0-22.857-16-38.857t-38.857-16h-548.571q-22.857 0-38.857 16t-16 38.857v91.429h-128q-7.429 0-12.857 5.429t-5.429 12.857v237.714q0 45.143 32.286 77.429t77.429 32.286h36.571v310.857q0 22.857 16 38.857t38.857 16h384q22.857 0 50.286-11.429t43.429-27.429l86.857-86.857q16-16 27.429-43.429t11.429-50.286v-146.286h36.571q45.143 0 77.429-32.286t32.286-77.429z" />
<glyph unicode="&#xf04b;" glyph-name="play" horiz-adv-x="805" d="M790.857 443.086l-758.857-421.714q-13.143-7.429-22.571-1.714t-9.429 20.571v841.143q0 14.857 9.429 20.571t22.571-1.714l758.857-421.714q13.143-7.429 13.143-17.714t-13.143-17.714z" />
<glyph unicode="&#xf08a;" glyph-name="heart-o" d="M950.857 632.229q0 46.286-12.286 81.714t-31.429 56.286-46.571 34-53.714 17.714-56 4.571-64-14.571-63.143-36.571-49.429-41.143-34.286-35.143q-10.286-12.571-28-12.571t-28 12.571q-13.714 16-34.286 35.143t-49.429 41.143-63.143 36.571-64 14.571-56-4.571-53.714-17.714-46.571-34-31.429-56.286-12.286-81.714q0-96 106.857-202.857l332-320 331.429 319.429q107.429 107.429 107.429 203.429zM1024 632.229q0-126.286-130.857-257.143l-356-342.857q-10.286-10.286-25.143-10.286t-25.143 10.286l-356.571 344q-5.714 4.571-15.714 14.857t-31.714 37.429-38.857 55.714-30.571 69.143-13.429 78.857q0 125.714 72.571 196.571t200.571 70.857q35.429 0 72.286-12.286t68.571-33.143 54.571-39.143 43.429-38.857q20.571 20.571 43.429 38.857t54.571 39.143 68.571 33.143 72.286 12.286q128 0 200.571-70.857t72.571-196.571z" />
<glyph unicode="&#xf099;" glyph-name="twitter" horiz-adv-x="951" d="M925.714 739.657q-38.286-56-92.571-95.429 0.571-8 0.571-24 0-74.286-21.714-148.286t-66-142-105.429-120.286-147.429-83.429-184.571-31.143q-154.857 0-283.429 82.857 20-2.286 44.571-2.286 128.571 0 229.143 78.857-60 1.143-107.429 36.857t-65.143 91.143q18.857-2.857 34.857-2.857 24.571 0 48.571 6.286-64 13.143-106 63.714t-42 117.429v2.286q38.857-21.714 83.429-23.429-37.714 25.143-60 65.714t-22.286 88q0 50.286 25.143 93.143 69.143-85.143 168.286-136.286t212.286-56.857q-4.571 21.714-4.571 42.286 0 76.571 54 130.571t130.571 54q80 0 134.857-58.286 62.286 12 117.143 44.571-21.143-65.714-81.143-101.714 53.143 5.714 106.286 28.571z" />
<glyph unicode="&#xf09a;" glyph-name="facebook" horiz-adv-x="585" d="M548 965.943v-150.857h-89.714q-49.143 0-66.286-20.571t-17.143-61.714v-108h167.429l-22.286-169.143h-145.143v-433.714h-174.857v433.714h-145.714v169.143h145.714v124.571q0 106.286 59.429 164.857t158.286 58.571q84 0 130.286-6.857z" />
<glyph unicode="&#xf0fe;" glyph-name="addthis" d="M731.429 424.229v73.143q0 14.857-10.857 25.714t-25.714 10.857h-182.857v182.857q0 14.857-10.857 25.714t-25.714 10.857h-73.143q-14.857 0-25.714-10.857t-10.857-25.714v-182.857h-182.857q-14.857 0-25.714-10.857t-10.857-25.714v-73.143q0-14.857 10.857-25.714t25.714-10.857h182.857v-182.857q0-14.857 10.857-25.714t25.714-10.857h73.143q14.857 0 25.714 10.857t10.857 25.714v182.857h182.857q14.857 0 25.714 10.857t10.857 25.714zM877.714 735.086v-548.571q0-68-48.286-116.286t-116.286-48.286h-548.571q-68 0-116.286 48.286t-48.286 116.286v548.571q0 68 48.286 116.286t116.286 48.286h548.571q68 0 116.286-48.286t48.286-116.286z" />
<glyph unicode="&#xf107;" glyph-name="chevron-down" horiz-adv-x="658" d="M614.286 552.229q0-7.429-5.714-13.143l-266.286-266.286q-5.714-5.714-13.143-5.714t-13.143 5.714l-266.286 266.286q-5.714 5.714-5.714 13.143t5.714 13.143l28.571 28.571q5.714 5.714 13.143 5.714t13.143-5.714l224.571-224.571 224.571 224.571q5.714 5.714 13.143 5.714t13.143-5.714l28.571-28.571q5.714-5.714 5.714-13.143z" />
<glyph unicode="&#xf167;" glyph-name="youtube" d="M554.857 261.943v-120.571q0-38.286-22.286-38.286-13.143 0-25.714 12.571v172q12.571 12.571 25.714 12.571 22.286 0 22.286-38.286zM748 261.371v-26.286h-51.429v26.286q0 38.857 25.714 38.857t25.714-38.857zM196 385.943h61.143v53.714h-178.286v-53.714h60v-325.143h57.143v325.143zM360.571 60.8h50.857v282.286h-50.857v-216q-17.143-24-32.571-24-10.286 0-12 12-0.571 1.714-0.571 20v208h-50.857v-223.429q0-28 4.571-41.714 6.857-21.143 33.143-21.143 27.429 0 58.286 34.857v-30.857zM605.714 145.371v112.571q0 41.714-5.143 56.571-9.714 32-40.571 32-28.571 0-53.143-30.857v124h-50.857v-378.857h50.857v27.429q25.714-31.429 53.143-31.429 30.857 0 40.571 31.429 5.143 15.429 5.143 57.143zM798.857 151.086v7.429h-52q0-29.143-1.143-34.857-4-20.571-22.857-20.571-26.286 0-26.286 39.429v49.714h102.286v58.857q0 45.143-15.429 66.286-22.286 29.143-60.571 29.143-38.857 0-61.143-29.143-16-21.143-16-66.286v-98.857q0-45.143 16.571-66.286 22.286-29.143 61.714-29.143 41.143 0 61.714 30.286 10.286 15.429 12 30.857 1.143 5.143 1.143 33.143zM451.429 672.8v120q0 39.429-24.571 39.429t-24.571-39.429v-120q0-40 24.571-40t24.571 40zM862.286 243.657q0-133.714-14.857-200-8-33.714-33.143-56.571t-58.286-26.286q-105.143-12-317.143-12t-317.143 12q-33.143 3.429-58.571 26.286t-32.857 56.571q-14.857 64-14.857 200 0 133.714 14.857 200 8 33.714 33.143 56.571t58.857 26.857q104.571 11.429 316.571 11.429t317.143-11.429q33.143-4 58.571-26.857t32.857-56.571q14.857-64 14.857-200zM292 972.8h58.286l-69.143-228v-154.857h-57.143v154.857q-8 42.286-34.857 121.143-21.143 58.857-37.143 106.857h60.571l40.571-150.286zM503.429 782.514v-100q0-46.286-16-67.429-21.143-29.143-60.571-29.143-38.286 0-60 29.143-16 21.714-16 67.429v100q0 45.714 16 66.857 21.714 29.143 60 29.143 39.429 0 60.571-29.143 16-21.143 16-66.857zM694.857 875.086v-285.143h-52v31.429q-30.286-35.429-58.857-35.429-26.286 0-33.714 21.143-4.571 13.714-4.571 42.857v225.143h52v-209.714q0-18.857 0.571-20 1.714-12.571 12-12.571 15.429 0 32.571 24.571v217.714h52z" />
<glyph unicode="&#xf16d;" glyph-name="instagram" d="M778.286 157.943v370.286h-77.143q11.429-36 11.429-74.857 0-72-36.571-132.857t-99.429-96.286-137.143-35.429q-112.571 0-192.571 77.429t-80 187.143q0 38.857 11.429 74.857h-80.571v-370.286q0-14.857 10-24.857t24.857-10h610.857q14.286 0 24.571 10t10.286 24.857zM616 462.514q0 70.857-51.714 120.857t-124.857 50q-72.571 0-124.286-50t-51.714-120.857 51.714-120.857 124.286-50q73.143 0 124.857 50t51.714 120.857zM778.286 668.229v94.286q0 16-11.429 27.714t-28 11.714h-99.429q-16.571 0-28-11.714t-11.429-27.714v-94.286q0-16.571 11.429-28t28-11.429h99.429q16.571 0 28 11.429t11.429 28zM877.714 787.086v-652.571q0-46.286-33.143-79.429t-79.429-33.143h-652.571q-46.286 0-79.429 33.143t-33.143 79.429v652.571q0 46.286 33.143 79.429t79.429 33.143h652.571q46.286 0 79.429-33.143t33.143-79.429z" />
<glyph unicode="&#xf231;" glyph-name="pinterest" horiz-adv-x="731" d="M0 631.657q0 61.714 21.429 116.286t59.143 95.143 86.857 70.286 105.714 44.571 115.429 14.857q90.286 0 168-38t126.286-110.571 48.571-164q0-54.857-10.857-107.429t-34.286-101.143-57.143-85.429-82.857-58.857-108-22q-38.857 0-77.143 18.286t-54.857 50.286q-5.714-22.286-16-64.286t-13.429-54.286-11.714-40.571-14.857-40.571-18.286-35.714-26.286-44.286-35.429-49.429l-8-2.857-5.143 5.714q-8.571 89.714-8.571 107.429 0 52.571 12.286 118t38 164.286 29.714 116q-18.286 37.143-18.286 96.571 0 47.429 29.714 89.143t75.429 41.714q34.857 0 54.286-23.143t19.429-58.571q0-37.714-25.143-109.143t-25.143-106.857q0-36 25.714-59.714t62.286-23.714q31.429 0 58.286 14.286t44.857 38.857 32 54.286 21.714 63.143 11.429 63.429 3.714 56.857q0 98.857-62.571 154t-163.143 55.143q-114.286 0-190.857-74t-76.571-187.714q0-25.143 7.143-48.571t15.429-37.143 15.429-26 7.143-17.429q0-16-8.571-41.714t-21.143-25.714q-1.143 0-9.714 1.714-29.143 8.571-51.714 32t-34.857 54-18.571 61.714-6.286 60.857z" />
</font>
</defs>
</svg>
